<?xml version="1.0" encoding="iso-8859-1"?>
<!-- Generator: Adobe Illustrator 19.0.0, SVG Export Plug-In . SVG Version: 6.00 Build 0)  -->
<svg version="1.1" id="Layer_1" xmlns="http://www.w3.org/2000/svg" xmlns:xlink="http://www.w3.org/1999/xlink" x="0px" y="0px"
	 viewBox="0 0 512 512" style="enable-background:new 0 0 512 512;" xml:space="preserve">
<rect x="10.199" y="197.977" style="fill:#45B5F5;" width="491.602" height="291.473"/>
<path style="fill:#1685CF;" d="M501.756,198.014l0.045-0.037h-0.091L307.369,40.731c-29.957-24.239-72.782-24.239-102.739,0
	L10.29,197.978h-0.091l0.045,0.037l-0.045,0.037h0.091l194.341,157.247c29.957,24.239,72.782,24.239,102.739,0L501.71,198.051h0.091
	L501.756,198.014z"/>
<rect x="100.462" y="84.766" style="fill:#9CDCFF;" width="311.076" height="183.586"/>
<g>
	<path style="fill:#3B404F;" d="M507.379,189.445l-85.642-69.295V84.767c0-5.633-4.567-10.199-10.199-10.199h-46.135l-51.618-41.766
		C297.487,19.615,276.965,12.352,256,12.352s-41.487,7.263-57.785,20.45l-51.618,41.766h-46.135
		c-5.632,0-10.199,4.566-10.199,10.199v35.382L4.618,189.447C1.839,191.269,0,194.406,0,197.978v291.471
		c0,5.633,4.567,10.199,10.199,10.199h491.602c5.632,0,10.199-4.566,10.199-10.199V197.978
		C512,194.405,510.16,191.267,507.379,189.445z M491.602,465.051L400.9,374.35c-3.983-3.982-10.441-3.982-14.425,0
		c-3.983,3.983-3.983,10.441,0,14.425l90.475,90.475H34.029l137.564-137.564l26.622,21.541
		c16.297,13.188,36.82,20.449,57.785,20.449s41.487-7.263,57.785-20.449l177.818-143.877V465.051z M20.398,219.349l135.249,109.433
		L20.398,464.032V219.349z M421.737,208.177h51.244l-51.244,41.463V208.177z M125.995,278.551h260.01l-85.051,68.817
		c-26.048,21.076-63.86,21.076-89.908,0L125.995,278.551z M90.263,249.64l-51.244-41.463h51.244V249.64z M472.891,187.779h-51.154
		v-41.389L472.891,187.779z M211.046,48.659c26.048-21.077,63.86-21.077,89.908,0l32.019,25.908H179.027L211.046,48.659z
		 M110.661,94.966h290.677v163.187H110.661V94.966z M90.263,187.779H39.109l51.154-41.39V187.779z"/>
	<path style="fill:#3B404F;" d="M361.999,364.296c1.991,1.991,4.601,2.986,7.211,2.986c2.61,0,5.221-0.996,7.212-2.988
		c3.983-3.983,3.982-10.441-0.001-14.424l-3.059-3.059c-3.982-3.982-10.441-3.983-14.424,0.001
		c-3.983,3.983-3.982,10.441,0.001,14.424L361.999,364.296z"/>
	<path style="fill:#3B404F;" d="M336.574,138.822H175.426c-5.632,0-10.199,4.566-10.199,10.199c0,5.633,4.567,10.199,10.199,10.199
		h161.147c5.632,0,10.199-4.566,10.199-10.199C346.773,143.389,342.206,138.822,336.574,138.822z"/>
	<path style="fill:#3B404F;" d="M336.574,193.898H175.426c-5.632,0-10.199,4.566-10.199,10.199c0,5.633,4.567,10.199,10.199,10.199
		h161.147c5.632,0,10.199-4.566,10.199-10.199C346.773,198.464,342.206,193.898,336.574,193.898z"/>
</g>
<g>
</g>
<g>
</g>
<g>
</g>
<g>
</g>
<g>
</g>
<g>
</g>
<g>
</g>
<g>
</g>
<g>
</g>
<g>
</g>
<g>
</g>
<g>
</g>
<g>
</g>
<g>
</g>
<g>
</g>
</svg>
