<?xml version="1.0" encoding="iso-8859-1"?>
<!-- Generator: Adobe Illustrator 19.0.0, SVG Export Plug-In . SVG Version: 6.00 Build 0)  -->
<svg version="1.1" id="Capa_1" xmlns="http://www.w3.org/2000/svg" xmlns:xlink="http://www.w3.org/1999/xlink" x="0px" y="0px"
	 viewBox="0 0 512 512" style="enable-background:new 0 0 512 512;" xml:space="preserve">
<path style="fill:#80CBED;" d="M352,112c-13.128,0-24.704-6.448-32-16.248c-7.296,9.8-18.872,16.248-32,16.248
	s-24.704-6.448-32-16.248c-7.296,9.8-18.872,16.248-32,16.248s-24.704-6.448-32-16.248c-7.296,9.8-18.872,16.248-32,16.248
	c-22.056,0-40-17.944-40-40v-8H40c-13.232,0-24,10.768-24,24v256c0,13.232,10.768,24,24,24h232.208
	C252.704,353.4,240,330.184,240,304c0-4.424,3.584-8,8-8h112c22.056,0,40,17.944,40,40v32h72c13.232,0,24-10.768,24-24V88
	c0-13.232-10.768-24-24-24h-80v8C392,94.056,374.056,112,352,112z M128,336H56v-16h72V336z M176,336h-32v-16h32V336z M200,296
	c0,4.424-3.584,8-8,8H48c-4.416,0-8-3.576-8-8V144c0-4.424,3.584-8,8-8h144c4.416,0,8,3.576,8,8V296z M328,176v16h-32v-16H328z
	 M232,136h88v16h-88V136z M232,176h40v16h-40V176z M232,216h40v16h-40V216z M248,272h-16v-16h16V272z M280,272h-16v-16h16V272z
	 M312,272h-16v-16h16V272z M400,272h-72v-16h72V272z M464,272h-48v-16h48V272z M472,184v40c0,4.424-3.584,8-8,8h-56
	c-4.416,0-8-3.576-8-8v-40c0-4.424,3.584-8,8-8h56C468.416,176,472,179.576,472,184z M432,152h-88v-16h88V152z"/>
<g>
	<path style="fill:#E2B624;" d="M288,96c13.232,0,24-10.768,24-24V40c0-13.232-10.768-24-24-24s-24,10.768-24,24v32
		C264,85.232,274.768,96,288,96z"/>
	<path style="fill:#E2B624;" d="M352,96c13.232,0,24-10.768,24-24V40c0-13.232-10.768-24-24-24s-24,10.768-24,24v32
		C328,85.232,338.768,96,352,96z"/>
</g>
<rect x="416" y="192" style="fill:#CC6C45;" width="40" height="24"/>
<g>
	<path style="fill:#E2B624;" d="M160,16c-13.232,0-24,10.768-24,24v32c0,13.232,10.768,24,24,24s24-10.768,24-24V40
		C184,26.768,173.232,16,160,16z"/>
	<path style="fill:#E2B624;" d="M136.912,235.056c-2.264,1.424-4.736,2.496-7.336,3.32c-0.4,0.128-0.792,0.264-1.2,0.376
		c-1.248,0.336-2.504,0.6-3.8,0.792c-0.224,0.032-0.44,0.04-0.664,0.064c-1.296,0.16-2.576,0.392-3.912,0.392
		s-2.616-0.232-3.912-0.392c-0.224-0.024-0.44-0.032-0.664-0.064c-1.296-0.192-2.56-0.448-3.8-0.792
		c-0.408-0.112-0.8-0.248-1.2-0.376c-2.6-0.824-5.072-1.896-7.336-3.32C82.136,242.616,67.264,263.352,64.56,288h110.88
		C172.736,263.352,157.856,242.616,136.912,235.056z"/>
</g>
<path style="fill:#80CBED;" d="M91.656,222.544C89.4,218.16,88,213.264,88,208v-8c0-17.648,14.352-32,32-32s32,14.352,32,32v8
	c0,5.264-1.4,10.16-3.656,14.544c15.608,7.4,28.104,20.584,35.656,36.896V152H56v107.44
	C63.56,243.128,76.048,229.944,91.656,222.544z"/>
<g>
	<path style="fill:#E2B624;" d="M120,224c4.72,0,8.2-2.12,10.288-3.888c0.072-0.064,0.168-0.096,0.24-0.16
		C133.856,217.016,136,212.776,136,208v-8c0-8.824-7.176-16-16-16s-16,7.176-16,16v8c0,4.776,2.144,9.016,5.472,11.952
		c0.08,0.064,0.168,0.096,0.24,0.16C111.8,221.88,115.28,224,120,224z"/>
	<path style="fill:#E2B624;" d="M224,96c13.232,0,24-10.768,24-24V40c0-13.232-10.768-24-24-24s-24,10.768-24,24v32
		C200,85.232,210.768,96,224,96z"/>
	<polygon style="fill:#E2B624;" points="144,512 144,376 288,376 288,368 264,344 248,312 248,304 368,304 384,320 392,352 392,512 
			"/>
</g>
<g>
	<path style="fill:#0B1716;" d="M472,384h-80v-16h80c13.232,0,24-10.768,24-24V88c0-13.232-10.768-24-24-24h-88V48h88
		c22.056,0,40,17.944,40,40v256C512,366.056,494.056,384,472,384z"/>
	<path style="fill:#0B1716;" d="M312,384H40c-22.056,0-40-17.944-40-40V88c0-22.056,17.944-40,40-40h88v16H40
		c-13.232,0-24,10.768-24,24v256c0,13.232,10.768,24,24,24h272V384z"/>
	<path style="fill:#0B1716;" d="M400,512h-16V336c0-13.232-10.768-24-24-24H256.496c3.952,31.52,30.928,56,63.504,56h16v16h-16
		c-44.112,0-80-35.888-80-80c0-4.424,3.584-8,8-8h112c22.056,0,40,17.944,40,40V512z"/>
	<rect x="136" y="376" style="fill:#0B1716;" width="16" height="136"/>
	<path style="fill:#0B1716;" d="M160,112c-22.056,0-40-17.944-40-40V40c0-22.056,17.944-40,40-40s40,17.944,40,40v32
		C200,94.056,182.056,112,160,112z M160,16c-13.232,0-24,10.768-24,24v32c0,13.232,10.768,24,24,24s24-10.768,24-24V40
		C184,26.768,173.232,16,160,16z"/>
	<path style="fill:#0B1716;" d="M224,112c-22.056,0-40-17.944-40-40V40c0-22.056,17.944-40,40-40s40,17.944,40,40v32
		C264,94.056,246.056,112,224,112z M224,16c-13.232,0-24,10.768-24,24v32c0,13.232,10.768,24,24,24s24-10.768,24-24V40
		C248,26.768,237.232,16,224,16z"/>
	<path style="fill:#0B1716;" d="M288,112c-22.056,0-40-17.944-40-40V40c0-22.056,17.944-40,40-40s40,17.944,40,40v32
		C328,94.056,310.056,112,288,112z M288,16c-13.232,0-24,10.768-24,24v32c0,13.232,10.768,24,24,24s24-10.768,24-24V40
		C312,26.768,301.232,16,288,16z"/>
	<path style="fill:#0B1716;" d="M352,112c-22.056,0-40-17.944-40-40V40c0-22.056,17.944-40,40-40s40,17.944,40,40v32
		C392,94.056,374.056,112,352,112z M352,16c-13.232,0-24,10.768-24,24v32c0,13.232,10.768,24,24,24s24-10.768,24-24V40
		C376,26.768,365.232,16,352,16z"/>
	<path style="fill:#0B1716;" d="M192,304H48c-4.416,0-8-3.576-8-8V144c0-4.424,3.584-8,8-8h144c4.416,0,8,3.576,8,8v152
		C200,300.424,196.416,304,192,304z M56,288h128V152H56V288z"/>
	<path style="fill:#0B1716;" d="M192,296h-16c0-28.104-15.896-52.576-39.096-60.944c-10.184,6.424-23.632,6.424-33.816,0
		C79.896,243.424,64,267.896,64,296H48c0-36.672,22.36-68.536,54.368-77.504c2.56-0.736,5.312-0.112,7.336,1.608
		C111.8,221.88,115.28,224,120,224s8.2-2.12,10.288-3.888c2.032-1.72,4.776-2.344,7.336-1.608C169.64,227.464,192,259.328,192,296z"
		/>
	<path style="fill:#0B1716;" d="M120,240c-17.648,0-32-14.352-32-32v-8c0-17.648,14.352-32,32-32s32,14.352,32,32v8
		C152,225.648,137.648,240,120,240z M120,184c-8.824,0-16,7.176-16,16v8c0,8.824,7.176,16,16,16s16-7.176,16-16v-8
		C136,191.176,128.824,184,120,184z"/>
	<rect x="56" y="320" style="fill:#0B1716;" width="72" height="16"/>
	<rect x="144" y="320" style="fill:#0B1716;" width="32" height="16"/>
	<rect x="232" y="136" style="fill:#0B1716;" width="88" height="16"/>
	<rect x="344" y="136" style="fill:#0B1716;" width="88" height="16"/>
	<rect x="232" y="176" style="fill:#0B1716;" width="40" height="16"/>
	<rect x="296" y="176" style="fill:#0B1716;" width="32" height="16"/>
	<rect x="232" y="216" style="fill:#0B1716;" width="40" height="16"/>
	<rect x="232" y="256" style="fill:#0B1716;" width="16" height="16"/>
	<rect x="264" y="256" style="fill:#0B1716;" width="16" height="16"/>
	<rect x="296" y="256" style="fill:#0B1716;" width="16" height="16"/>
	<rect x="328" y="256" style="fill:#0B1716;" width="72" height="16"/>
	<rect x="416" y="256" style="fill:#0B1716;" width="48" height="16"/>
	<path style="fill:#0B1716;" d="M464,232h-56c-4.416,0-8-3.576-8-8v-40c0-4.424,3.584-8,8-8h56c4.416,0,8,3.576,8,8v40
		C472,228.424,468.416,232,464,232z M416,216h40v-24h-40V216z"/>
</g>
<g>
</g>
<g>
</g>
<g>
</g>
<g>
</g>
<g>
</g>
<g>
</g>
<g>
</g>
<g>
</g>
<g>
</g>
<g>
</g>
<g>
</g>
<g>
</g>
<g>
</g>
<g>
</g>
<g>
</g>
</svg>
