<svg xmlns="http://www.w3.org/2000/svg" height="512pt" version="1.1" viewBox="0 0 512 512" width="512pt">
<g id="surface1">
<path d="M 320.265625 417.734375 L 191.734375 417.734375 C 183.449219 417.734375 176.734375 424.449219 176.734375 432.734375 C 176.734375 476.441406 212.292969 512 256 512 C 299.710938 512 335.265625 476.441406 335.265625 432.734375 C 335.265625 424.449219 328.550781 417.734375 320.265625 417.734375 Z M 320.265625 417.734375 " style=" stroke:none;fill-rule:nonzero;fill:rgb(0%,35.294118%,69.411765%);fill-opacity:1;" />
<path d="M 320.265625 417.734375 L 256 417.734375 L 256 512 C 299.710938 512 335.265625 476.441406 335.265625 432.734375 C 335.265625 424.449219 328.550781 417.734375 320.265625 417.734375 Z M 320.265625 417.734375 " style=" stroke:none;fill-rule:nonzero;fill:rgb(0%,20.392157%,36.078431%);fill-opacity:1;" />
<path d="M 256 0 C 167.996094 0 96.398438 71.597656 96.398438 159.601562 C 96.398438 210.246094 120.277344 257.511719 160.667969 287.605469 L 160.667969 308.507812 C 160.667969 316.789062 167.382812 323.507812 175.667969 323.507812 C 183.949219 323.507812 190.667969 316.789062 190.667969 308.507812 L 321.335938 308.507812 C 321.335938 316.792969 328.050781 323.507812 336.335938 323.507812 C 344.617188 323.507812 351.335938 316.792969 351.335938 308.507812 L 351.335938 287.605469 C 391.722656 257.511719 415.601562 210.246094 415.601562 159.601562 C 415.597656 71.597656 344.003906 0 256 0 Z M 256 0 " style=" stroke:none;fill-rule:nonzero;fill:rgb(100%,81.960784%,16.862745%);fill-opacity:1;" />
<path d="M 256 0 L 256 308.507812 L 321.335938 308.507812 C 321.335938 316.792969 328.050781 323.507812 336.335938 323.507812 C 344.617188 323.507812 351.335938 316.792969 351.335938 308.507812 L 351.335938 287.605469 C 391.722656 257.511719 415.601562 210.246094 415.601562 159.601562 C 415.597656 71.597656 344.003906 0 256 0 Z M 256 0 " style=" stroke:none;fill-rule:nonzero;fill:rgb(100%,55.686275%,11.372549%);fill-opacity:1;" />
<path d="M 47.132812 174.601562 L 15 174.601562 C 6.714844 174.601562 0 167.882812 0 159.601562 C 0 151.316406 6.714844 144.601562 15 144.601562 L 47.132812 144.601562 C 55.414062 144.601562 62.132812 151.316406 62.132812 159.601562 C 62.132812 167.882812 55.414062 174.601562 47.132812 174.601562 Z M 47.132812 174.601562 " style=" stroke:none;fill-rule:nonzero;fill:rgb(100%,55.686275%,11.372549%);fill-opacity:1;" />
<path d="M 497 174.601562 L 464.867188 174.601562 C 456.582031 174.601562 449.867188 167.882812 449.867188 159.601562 C 449.867188 151.316406 456.582031 144.601562 464.867188 144.601562 L 497 144.601562 C 505.28125 144.601562 512 151.316406 512 159.601562 C 512 167.882812 505.28125 174.601562 497 174.601562 Z M 497 174.601562 " style=" stroke:none;fill-rule:nonzero;fill:rgb(100%,42.745098%,8.235294%);fill-opacity:1;" />
<path d="M 47.300781 295.101562 C 42.117188 295.101562 37.074219 292.414062 34.296875 287.601562 C 30.152344 280.425781 32.613281 271.25 39.785156 267.109375 L 67.613281 251.042969 C 74.789062 246.898438 83.964844 249.359375 88.105469 256.535156 C 92.246094 263.710938 89.789062 272.882812 82.613281 277.023438 L 54.785156 293.089844 C 52.425781 294.453125 49.847656 295.101562 47.300781 295.101562 Z M 47.300781 295.101562 " style=" stroke:none;fill-rule:nonzero;fill:rgb(100%,55.686275%,11.372549%);fill-opacity:1;" />
<path d="M 436.894531 70.171875 C 431.710938 70.171875 426.667969 67.480469 423.890625 62.667969 C 419.75 55.492188 422.207031 46.316406 429.382812 42.175781 L 457.210938 26.109375 C 464.386719 21.964844 473.558594 24.425781 477.703125 31.601562 C 481.84375 38.773438 479.386719 47.949219 472.210938 52.089844 L 444.382812 68.15625 C 442.019531 69.523438 439.441406 70.171875 436.894531 70.171875 Z M 436.894531 70.171875 " style=" stroke:none;fill-rule:nonzero;fill:rgb(100%,42.745098%,8.235294%);fill-opacity:1;" />
<path d="M 464.699219 295.101562 C 462.152344 295.101562 459.574219 294.453125 457.214844 293.089844 L 429.382812 277.027344 C 422.210938 272.886719 419.75 263.710938 423.890625 256.535156 C 428.035156 249.363281 437.207031 246.902344 444.382812 251.046875 L 472.210938 267.109375 C 479.386719 271.253906 481.847656 280.425781 477.703125 287.601562 C 474.925781 292.410156 469.882812 295.101562 464.699219 295.101562 Z M 464.699219 295.101562 " style=" stroke:none;fill-rule:nonzero;fill:rgb(100%,42.745098%,8.235294%);fill-opacity:1;" />
<path d="M 75.101562 70.171875 C 72.558594 70.171875 69.980469 69.523438 67.617188 68.160156 L 39.789062 52.09375 C 32.613281 47.953125 30.15625 38.78125 34.296875 31.605469 C 38.4375 24.429688 47.613281 21.972656 54.789062 26.113281 L 82.617188 42.175781 C 89.789062 46.320312 92.25 55.492188 88.105469 62.667969 C 85.328125 67.480469 80.285156 70.171875 75.101562 70.171875 Z M 75.101562 70.171875 " style=" stroke:none;fill-rule:nonzero;fill:rgb(100%,55.686275%,11.372549%);fill-opacity:1;" />
<path d="M 223.867188 319.199219 C 215.582031 319.199219 208.867188 312.484375 208.867188 304.199219 L 208.867188 230.078125 L 187.328125 208.542969 C 181.472656 202.683594 181.472656 193.1875 187.328125 187.328125 C 193.183594 181.472656 202.683594 181.472656 208.539062 187.328125 L 234.472656 213.261719 C 237.285156 216.074219 238.867188 219.890625 238.867188 223.867188 L 238.867188 304.199219 C 238.867188 312.484375 232.152344 319.199219 223.867188 319.199219 Z M 223.867188 319.199219 " style=" stroke:none;fill-rule:nonzero;fill:rgb(100%,55.686275%,11.372549%);fill-opacity:1;" />
<path d="M 288.132812 319.199219 C 279.847656 319.199219 273.132812 312.484375 273.132812 304.199219 L 273.132812 223.867188 C 273.132812 219.886719 274.714844 216.074219 277.527344 213.261719 L 303.457031 187.328125 C 309.316406 181.472656 318.8125 181.472656 324.671875 187.328125 C 330.53125 193.1875 330.53125 202.683594 324.671875 208.542969 L 303.132812 230.078125 L 303.132812 304.199219 C 303.132812 312.484375 296.414062 319.199219 288.132812 319.199219 Z M 288.132812 319.199219 " style=" stroke:none;fill-rule:nonzero;fill:rgb(100%,42.745098%,8.235294%);fill-opacity:1;" />
<path d="M 367.398438 336.332031 C 367.398438 310.34375 346.253906 289.199219 320.265625 289.199219 L 191.734375 289.199219 C 165.746094 289.199219 144.601562 310.34375 144.601562 336.332031 C 144.601562 348.742188 149.429688 360.039062 157.296875 368.46875 C 149.429688 376.894531 144.601562 388.191406 144.601562 400.601562 C 144.601562 426.589844 165.746094 447.734375 191.734375 447.734375 L 320.269531 447.734375 C 346.257812 447.734375 367.402344 426.589844 367.402344 400.601562 C 367.402344 388.191406 362.574219 376.894531 354.703125 368.46875 C 362.570312 360.039062 367.398438 348.742188 367.398438 336.332031 Z M 367.398438 336.332031 " style=" stroke:none;fill-rule:nonzero;fill:rgb(45.098039%,73.72549%,100%);fill-opacity:1;" />
<path d="M 367.398438 336.332031 C 367.398438 310.34375 346.253906 289.199219 320.265625 289.199219 L 256 289.199219 L 256 447.734375 L 320.265625 447.734375 C 346.253906 447.734375 367.398438 426.589844 367.398438 400.597656 C 367.398438 388.1875 362.570312 376.890625 354.703125 368.464844 C 362.570312 360.039062 367.398438 348.742188 367.398438 336.332031 Z M 367.398438 336.332031 " style=" stroke:none;fill-rule:nonzero;fill:rgb(0%,58.431373%,100%);fill-opacity:1;" />
</g>
</svg>