<svg height="512pt" viewBox="-51 0 512 512" width="512pt" xmlns="http://www.w3.org/2000/svg"><path d="m262.257812 512h-218.015624c-24.394532 0-44.242188-19.847656-44.242188-44.242188v-423.515624c0-24.394532 19.847656-44.242188 44.242188-44.242188h218.015624c24.394532 0 44.242188 19.847656 44.242188 44.242188v423.515624c0 24.394532-19.847656 44.242188-44.242188 44.242188zm0 0" fill="#bdfdff"/><path d="m262.257812 0h-109.007812v512h109.007812c24.394532 0 44.242188-19.847656 44.242188-44.242188v-423.515624c0-24.394532-19.847656-44.242188-44.242188-44.242188zm0 0" fill="#76e2f8"/><path d="m44.242188 512h218.015624c24.394532 0 44.242188-19.847656 44.242188-44.242188v-64.273437c-3.03125 10.394531-12.640625 18.015625-24 18.015625h-259.5625c-10.273438 0-19.113281-6.25-22.9375-15.152344v61.410156c0 24.394532 19.847656 44.242188 44.242188 44.242188zm0 0" fill="#09607d"/><path d="m282.5 421.5h-129.25v90.5h109.007812c24.394532 0 44.242188-19.847656 44.242188-44.242188v-64.273437c-3.03125 10.394531-12.640625 18.015625-24 18.015625zm0 0" fill="#001e2a"/><path d="m193.25 482h-80c-8.285156 0-15-6.714844-15-15s6.714844-15 15-15h80c8.285156 0 15 6.714844 15 15s-6.714844 15-15 15zm0 0" fill="#d8e6eb"/><path d="m23.9375 60h258.5625c11.359375 0 20.96875 7.621094 24 18.015625v-33.773437c0-24.394532-19.847656-44.242188-44.242188-44.242188h-218.015624c-24.394532 0-44.242188 19.847656-44.242188 44.242188v33.695312c3.050781-10.355469 12.625-17.9375 23.9375-17.9375zm0 0" fill="#09607d"/><path d="m262.257812 0h-109.007812v60h129.25c11.359375 0 20.96875 7.621094 24 18.015625v-33.773437c0-24.394532-19.847656-44.242188-44.242188-44.242188zm0 0" fill="#001e2a"/><path d="m193.25 452h-40v30h40c8.285156 0 15-6.714844 15-15s-6.714844-15-15-15zm0 0" fill="#b5c3ce"/><path d="m319.898438 356h-26.792969c-33.96875 0-61.605469-27.636719-61.605469-61.605469v-124.792969c0-33.96875 27.636719-61.601562 61.605469-61.601562h26.792969c33.964843 0 61.601562 27.632812 61.601562 61.601562v124.792969c0 33.96875-27.636719 61.605469-61.601562 61.605469zm-26.792969-218c-17.429688 0-31.605469 14.175781-31.605469 31.605469v124.792969c0 17.425781 14.175781 31.601562 31.605469 31.601562h26.792969c17.425781 0 31.601562-14.175781 31.601562-31.601562v-124.796876c0-17.425781-14.175781-31.601562-31.601562-31.601562zm0 0" fill="#d8e6eb"/><path d="m319.898438 108h-13.398438v30h13.398438c17.425781 0 31.601562 14.175781 31.601562 31.605469v124.792969c0 17.425781-14.175781 31.601562-31.601562 31.601562h-13.398438v30h13.398438c33.964843 0 61.601562-27.632812 61.601562-61.601562v-124.796876c0-33.96875-27.636719-61.601562-61.601562-61.601562zm0 0" fill="#b5c3ce"/><path d="m316.695312 374h-20.390624c-51.722657 0-93.804688-44.859375-93.804688-100.003906v-51.996094c0-8.285156 6.714844-15 15-15h178c8.285156 0 15 6.714844 15 15v51.996094c0 55.140625-42.082031 100.003906-93.804688 100.003906zm0 0" fill="#70da40"/><path d="m395.5 207h-89v167h10.195312c51.722657 0 93.804688-44.859375 93.804688-100.003906v-51.996094c0-8.285156-6.714844-15-15-15zm0 0" fill="#56c225"/><path d="m306.5 328.75c-8.285156 0-15-6.714844-15-15v-16.5c0-8.285156 6.714844-15 15-15s15 6.714844 15 15v16.5c0 8.285156-6.714844 15-15 15zm0 0" fill="#d8e6eb"/><path d="m306.5 282.25v46.5c8.285156 0 15-6.714844 15-15v-16.5c0-8.285156-6.714844-15-15-15zm0 0" fill="#b5c3ce"/></svg>