<svg xmlns="http://www.w3.org/2000/svg" height="512pt" version="1.1" viewBox="0 0 512.00025 512" width="512pt">
<g id="surface1">
<path d="M 452.449219 116.359375 C 480.503906 155.757812 497 203.949219 497 256 C 497 389.101562 389.101562 497 256 497 C 122.898438 497 15 389.101562 15 256 C 15 122.898438 122.898438 15 256 15 C 308.050781 15 356.242188 31.5 395.640625 59.554688 " style=" stroke:none;fill-rule:nonzero;fill:rgb(100%,95.686275%,84.705882%);fill-opacity:1;" />
<path d="M 452.449219 116.359375 L 395.640625 59.554688 C 356.246094 31.5 308.050781 15 256 15 L 256 497 C 389.101562 497 497 389.101562 497 256 C 497 203.949219 480.503906 155.757812 452.449219 116.359375 Z M 452.449219 116.359375 " style=" stroke:none;fill-rule:nonzero;fill:rgb(100%,84.705882%,39.215686%);fill-opacity:1;" />
<path d="M 256 512 C 187.617188 512 123.332031 485.371094 74.980469 437.019531 C 26.628906 388.667969 0 324.378906 0 256 C 0 187.621094 26.628906 123.332031 74.980469 74.980469 C 123.332031 26.628906 187.621094 0 256 0 C 309.558594 0 360.851562 16.367188 404.34375 47.335938 C 411.089844 52.140625 412.664062 61.507812 407.859375 68.253906 C 403.054688 75.003906 393.6875 76.574219 386.941406 71.773438 C 348.5625 44.445312 303.285156 30 256 30 C 131.382812 30 30 131.382812 30 256 C 30 380.617188 131.382812 482 256 482 C 380.617188 482 482 380.617188 482 256 C 482 208.714844 467.554688 163.433594 440.226562 125.058594 C 435.421875 118.3125 436.996094 108.945312 443.746094 104.140625 C 450.492188 99.335938 459.859375 100.910156 464.664062 107.65625 C 495.632812 151.144531 512 202.441406 512 256 C 512 324.378906 485.371094 388.667969 437.019531 437.019531 C 388.667969 485.371094 324.382812 512 256 512 Z M 256 512 " style=" stroke:none;fill-rule:nonzero;fill:rgb(73.333333%,36.470588%,29.803922%);fill-opacity:1;" />
<path d="M 386.941406 71.773438 C 393.6875 76.578125 403.054688 75.003906 407.859375 68.253906 C 412.664062 61.507812 411.089844 52.140625 404.34375 47.335938 C 360.855469 16.367188 309.558594 0 256 0 L 256 30 C 303.285156 30 348.5625 44.445312 386.941406 71.773438 Z M 386.941406 71.773438 " style=" stroke:none;fill-rule:nonzero;fill:rgb(64.313725%,30.980392%,24.313725%);fill-opacity:1;" />
<path d="M 464.664062 107.65625 C 459.859375 100.910156 450.492188 99.335938 443.746094 104.140625 C 436.996094 108.945312 435.425781 118.3125 440.226562 125.058594 C 467.554688 163.433594 482 208.714844 482 256 C 482 380.617188 380.617188 482 256 482 L 256 512 C 324.382812 512 388.667969 485.371094 437.019531 437.019531 C 485.371094 388.667969 512 324.378906 512 256 C 512 202.441406 495.632812 151.144531 464.664062 107.65625 Z M 464.664062 107.65625 " style=" stroke:none;fill-rule:nonzero;fill:rgb(64.313725%,30.980392%,24.313725%);fill-opacity:1;" />
<path d="M 256 431.667969 C 159.136719 431.667969 80.335938 352.863281 80.335938 256 C 80.335938 159.136719 159.136719 80.332031 256 80.332031 C 352.863281 80.332031 431.667969 159.136719 431.667969 256 C 431.667969 352.863281 352.863281 431.667969 256 431.667969 Z M 256 110.332031 C 175.679688 110.332031 110.335938 175.679688 110.335938 256 C 110.335938 336.320312 175.679688 401.667969 256 401.667969 C 336.320312 401.667969 401.667969 336.320312 401.667969 256 C 401.667969 175.679688 336.324219 110.332031 256 110.332031 Z M 256 110.332031 " style=" stroke:none;fill-rule:nonzero;fill:rgb(100%,38.039216%,58.039216%);fill-opacity:1;" />
<path d="M 401.667969 256 C 401.667969 336.320312 336.320312 401.667969 256 401.667969 L 256 431.667969 C 352.863281 431.667969 431.667969 352.863281 431.667969 256 C 431.667969 159.136719 352.863281 80.332031 256 80.332031 L 256 110.332031 C 336.324219 110.332031 401.667969 175.679688 401.667969 256 Z M 401.667969 256 " style=" stroke:none;fill-rule:nonzero;fill:rgb(100%,22.352941%,69.411765%);fill-opacity:1;" />
<path d="M 256 160.667969 C 203.433594 160.667969 160.667969 203.433594 160.667969 256 C 160.667969 308.566406 203.433594 351.332031 256 351.332031 C 308.566406 351.332031 351.335938 308.566406 351.335938 256 C 351.335938 203.433594 308.566406 160.667969 256 160.667969 Z M 256 160.667969 " style=" stroke:none;fill-rule:nonzero;fill:rgb(100%,38.039216%,58.039216%);fill-opacity:1;" />
<path d="M 351.335938 256 C 351.335938 203.433594 308.566406 160.667969 256 160.667969 L 256 351.332031 C 308.566406 351.332031 351.335938 308.566406 351.335938 256 Z M 351.335938 256 " style=" stroke:none;fill-rule:nonzero;fill:rgb(100%,22.352941%,69.411765%);fill-opacity:1;" />
<path d="M 15 512 C 11.160156 512 7.320312 510.535156 4.394531 507.605469 C -1.464844 501.75 -1.464844 492.25 4.394531 486.394531 L 74.980469 415.804688 C 80.839844 409.949219 90.335938 409.949219 96.195312 415.804688 C 102.054688 421.664062 102.054688 431.160156 96.195312 437.019531 L 25.605469 507.605469 C 22.679688 510.535156 18.839844 512 15 512 Z M 15 512 " style=" stroke:none;fill-rule:nonzero;fill:rgb(73.333333%,36.470588%,29.803922%);fill-opacity:1;" />
<path d="M 497 512 C 493.160156 512 489.320312 510.535156 486.394531 507.605469 L 415.808594 437.019531 C 409.949219 431.164062 409.949219 421.664062 415.808594 415.804688 C 421.664062 409.949219 431.160156 409.949219 437.023438 415.804688 L 507.605469 486.394531 C 513.464844 492.25 513.464844 501.75 507.605469 507.605469 C 504.679688 510.535156 500.839844 512 497 512 Z M 497 512 " style=" stroke:none;fill-rule:nonzero;fill:rgb(64.313725%,30.980392%,24.313725%);fill-opacity:1;" />
<path d="M 256 256 L 397.59375 114.40625 " style=" stroke:none;fill-rule:nonzero;fill:rgb(15.294118%,85.098039%,96.862745%);fill-opacity:1;" />
<path d="M 256 271 C 252.160156 271 248.320312 269.535156 245.394531 266.605469 C 239.535156 260.75 239.535156 251.25 245.394531 245.394531 L 386.988281 103.800781 C 392.84375 97.941406 402.34375 97.941406 408.199219 103.800781 C 414.058594 109.65625 414.058594 119.15625 408.199219 125.011719 L 266.605469 266.605469 C 263.679688 269.535156 259.839844 271 256 271 Z M 256 271 " style=" stroke:none;fill-rule:nonzero;fill:rgb(15.294118%,85.098039%,96.862745%);fill-opacity:1;" />
<path d="M 511.597656 68.359375 C 510.40625 63.300781 506.675781 59.21875 501.742188 57.574219 L 466.257812 45.742188 L 454.429688 10.257812 C 452.78125 5.324219 448.703125 1.597656 443.644531 0.402344 C 438.582031 -0.789062 433.265625 0.71875 429.589844 4.394531 L 372.785156 61.199219 C 368.765625 65.21875 367.363281 71.160156 369.160156 76.550781 L 383.363281 119.152344 C 384.855469 123.632812 388.371094 127.144531 392.847656 128.640625 L 435.449219 142.84375 C 437.007812 143.359375 438.605469 143.613281 440.191406 143.613281 C 444.109375 143.613281 447.941406 142.078125 450.800781 139.21875 L 507.605469 82.414062 C 511.285156 78.734375 512.792969 73.417969 511.597656 68.359375 Z M 511.597656 68.359375 " style=" stroke:none;fill-rule:nonzero;fill:rgb(0%,35.294118%,69.411765%);fill-opacity:1;" />
<path d="M 511.597656 68.359375 C 510.40625 63.300781 506.675781 59.21875 501.742188 57.574219 L 466.257812 45.742188 L 386.984375 125.015625 C 388.609375 126.640625 390.609375 127.890625 392.847656 128.636719 L 435.449219 142.839844 C 437.007812 143.359375 438.605469 143.609375 440.191406 143.609375 C 444.109375 143.609375 447.941406 142.078125 450.800781 139.21875 L 507.605469 82.414062 C 511.285156 78.734375 512.792969 73.417969 511.597656 68.359375 Z M 511.597656 68.359375 " style=" stroke:none;fill-rule:nonzero;fill:rgb(0%,20.392157%,36.078431%);fill-opacity:1;" />
</g>
</svg>