<svg height="480pt" viewBox="0 0 480 480" width="480pt" xmlns="http://www.w3.org/2000/svg"><path d="m240 8c-128.128906 0-232 103.871094-232 232s103.871094 232 232 232 232-103.871094 232-232-103.871094-232-232-232zm152 304c0 4.417969-3.582031 8-8 8h-16v16h-288v-160h8v-16c0-4.417969 3.582031-8 8-8h288c4.417969 0 8 3.582031 8 8zm0 0" fill="#78b9eb"/><path d="m288 256c0 17.671875 14.328125 32 32 32h48v-64h-48c-17.671875 0-32 14.328125-32 32zm0 0" fill="#78b9eb"/><g fill="#006df0"><path d="m240 0c-132.546875 0-240 107.453125-240 240s107.453125 240 240 240 240-107.453125 240-240c-.148438-132.484375-107.515625-239.851562-240-240zm0 464c-123.710938 0-224-100.289062-224-224s100.289062-224 224-224 224 100.289062 224 224c-.140625 123.652344-100.347656 223.859375-224 224zm0 0"/><path d="m384 144h-288c-8.835938 0-16 7.164062-16 16v8h-8v176h304v-16h8c8.835938 0 16-7.164062 16-16v-152c0-8.835938-7.164062-16-16-16zm-296 184v-144h272v32h-40c-22.089844 0-40 17.910156-40 40s17.910156 40 40 40h40v32zm272-48h-40c-13.253906 0-24-10.746094-24-24s10.746094-24 24-24h40zm24 32h-8v-144h-280v-8h288zm0 0"/><path d="m344 256c0 8.835938-7.164062 16-16 16s-16-7.164062-16-16 7.164062-16 16-16 16 7.164062 16 16zm0 0"/><path d="m112 288h-16v32h32v-16h-16zm0 0"/></g></svg>