<svg xmlns="http://www.w3.org/2000/svg" width="301.23" height="280" viewBox="0 0 301.23 280">
  <defs>
    <style>
      .cls-1 {
        fill: #7effc3;
      }

      .cls-2 {
        fill: #b28b67;
      }

      .cls-3 {
        fill: #191847;
      }

      .cls-4 {
        fill: #997659;
      }

      .cls-5 {
        fill: #e4e4e4;
      }

      .cls-6 {
        fill: #db2721;
      }

      .cls-7 {
        fill: #ff4133;
      }

      .cls-8 {
        fill: #dde3e9;
      }

      .cls-9 {
        fill: #2f3676;
      }

      .cls-10 {
        fill: rgba(0,0,0,0.1);
      }

      .cls-11 {
        fill: rgba(255,255,255,0.2);
      }
    </style>
  </defs>
  <g id="Agrupar_64" data-name="Agrupar 64" transform="translate(-29.385 -152)">
    <path id="Caminho_167" data-name="Caminho 167" class="cls-1" d="M51.915,159.082c23.151-17.475,45.163,2.995,119.028,5.149,87.584,2.555,111.072-24.638,136.356-5.149,39.3,30.3,25.806,129.366-17.285,194.22-13.343,20.082-51.24,77.119-109.469,78.666C107.194,433.916,58.436,346.3,42.269,297.142,29.973,259.76,17.048,185.4,51.915,159.082Z"/>
    <g id="humaaans_standing-18" data-name="humaaans/standing-18">
      <g id="humaaan-2">
        <g id="Head_Front_Airy" data-name="Head/Front/Airy">
          <g id="Head">
            <path id="Caminho_168" data-name="Caminho 168" class="cls-2" d="M173.964,214.038a14.728,14.728,0,0,1-3.918-10.585c.816-11.638,17.017-9.078,20.168-3.2s2.777,20.773-1.3,21.823c-1.624.419-5.084-.607-8.606-2.729l2.211,15.638H169.471Z"/>
          </g>
          <path id="hair" class="cls-3" d="M182.775,193.479c-1.72-.282-6.352-.476-7.206-.476-.546,0-1.137.125-1.461-.376-.264-.411-.167-1.1-.246-1.581-.092-.553-.223-1.1-.354-1.644a16.732,16.732,0,0,0-1.736-4.41,13.553,13.553,0,0,0-6.425-5.817,20.625,20.625,0,0,0-9.754-1.341c-3.5.283-6.67,1.439-9.975,2.527a20.911,20.911,0,0,1-9.743.938c-3.319-.51-5.827-2.309-8.627-4.016a16.068,16.068,0,0,0-9.529-2.629,18.342,18.342,0,0,0-8.693,3.3,14.181,14.181,0,0,0-5.606,6.36c-1.226,2.973-1.225,6.236.791,8.863,2.923,3.809,8.349,4.794,12.863,4.7a24.589,24.589,0,0,0,7.641-1.4c3.288-1.157,6.129-3.117,9.205-4.707a23.916,23.916,0,0,1,4.5-1.8,5.017,5.017,0,0,1,4.387.291,20.706,20.706,0,0,0,4.418,2.53,14.269,14.269,0,0,0,4.985.895c3.307-.026,6.567-1.056,9.778-1.746,2.619-.563,5.421-1.124,8.092-.583,1.114.226,2.741.692,3.144,1.85-6.773,1.228-9.434,9.6-7.524,15.753,1.03,3.319,7.225,7.2,9.634,5.454,1.526-1.106.6-2.557,0-3.515-1.148-1.834-1.541-4.191.583-5.468,1.833-1.1,3.759,1.514,3.8,1.511.5-.039,4.856-2.5,7.854-6.092,2.958.175,3.407-1.775,2.7-3.37S185.152,193.869,182.775,193.479Z"/>
        </g>
        <g id="Bottom_Standing_Jogging" data-name="Bottom/Standing/Jogging">
          <path id="Leg" class="cls-4" d="M166.214,280.13l40.409,67.557,30.3,57.114h6.525L192.683,280.13Z"/>
          <g id="Accessories_Shoe_Flat-Sneaker" data-name="Accessories/Shoe/Flat-Sneaker">
            <path id="shoe" class="cls-5" d="M232.929,402.164a11.666,11.666,0,0,0-.913,3.646,27.244,27.244,0,0,0,.49,4.293h30.672q1.2-3.953-1.38-4.268t-4.28-.569l-14.256-6.355a.542.542,0,0,0-.718.275l-.006.014-.916,2.223a9.775,9.775,0,0,1-3.876,1.112,8.779,8.779,0,0,1-3.346-.978h0a1.088,1.088,0,0,0-1.442.536C232.948,402.116,232.938,402.14,232.929,402.164Z"/>
          </g>
          <path id="Pant" class="cls-6" d="M228.505,395.655l12.584-3.807q-8.271-24.723-20.273-54.413t-25.78-57.3H159.494a558.907,558.907,0,0,0,32.478,63.477A429.563,429.563,0,0,0,228.505,395.655Z"/>
          <path id="Leg-2" data-name="Leg" class="cls-2" d="M163.558,280.13c-3.814,23.74-11.17,54.071-11.864,55.007q-.694.936-49.983,16.748l1.41,5.755q58.776-8.481,61.94-13.159c3.164-4.679,18.962-41.639,25.081-64.351Z"/>
          <path id="Pant-2" data-name="Pant" class="cls-7" d="M113.262,346.911l2.483,9.268q43.96,3.855,53.872-5.572t22.591-70.477H158.316q-8.032,49.99-8.982,52.09T113.262,346.911Z"/>
          <g id="Accessories_Shoe_Flat-Sneaker-2" data-name="Accessories/Shoe/Flat-Sneaker">
            <path id="shoe-2" data-name="shoe" class="cls-5" d="M103.32,349.488a11.68,11.68,0,0,0-3.748-.266,27.329,27.329,0,0,0-4.143,1.229l5.326,30.206q4.1.49,3.963-2.1t-.182-4.314l3.783-15.143a.544.544,0,0,0-.4-.66l-.015,0-2.348-.517a9.772,9.772,0,0,1-1.769-3.623,8.79,8.79,0,0,1,.383-3.465h0a1.088,1.088,0,0,0-.778-1.327Z"/>
          </g>
        </g>
        <g id="Body_Jacket" data-name="Body/Jacket">
          <path id="Skin" class="cls-2" d="M213.005,271.489l15.4,15.028a46.684,46.684,0,0,1,11.018,6.334c.644.776,1.345,2.264-1.684,1.6s-6.246-1.23-6.815-.245,1.108,2.495.056,3.784q-1.053,1.29-7.077-8.2l-16.02-9.445Zm-68.378,2.119,11.364.045q-10.525,33.978-11.364,36.057c-1.259,3.118,1.4,7.868,2.543,10.42-3.709,1.66-3.314-4.486-7.992-2.31-4.271,1.987-7.519,5.587-12.453,2.543-.607-.375-1.271-1.784.335-2.885,4-2.744,9.767-7.546,10.546-9.126Q139.2,305.118,144.627,273.608Z"/>
          <path id="Coat-Back" class="cls-3" d="M176.923,225.922l4.7-.807q12.144,30.337,42.4,55.13l-15.244,18.521C188.614,275.231,176.181,250.95,176.923,225.922Z"/>
          <path id="Shirt" class="cls-8" d="M156.423,285.017H198.3q-14.553-35.382-14.552-60.113l-12.632-1.882C161.187,238.988,158.384,258.645,156.423,285.017Z"/>
          <path id="Coat-Front" class="cls-9" d="M170.847,223.031l.005-.009h.824q1.48.051,4.509.184l3.052,8.722q.484,15.953,5.656,64.295H157.444q.108,3.339.356,6.74H137.39q4.579-51.665,33.447-79.941Z"/>
          <path id="Shade" class="cls-10" d="M159.257,267.742q1.171,20.813,5.868,28.7h-7.674A143.48,143.48,0,0,1,159.257,267.742Z"/>
          <path id="Light" class="cls-11" d="M163.553,279.579l13.535-6.292v6.292Z"/>
        </g>
      </g>
    </g>
  </g>
</svg>
