<svg xmlns="http://www.w3.org/2000/svg" width="281.527" height="280" viewBox="0 0 281.527 280">
  <defs>
    <style>
      .cls-1 {
        fill: #ffa6a7;
      }

      .cls-2 {
        fill: #915b3c;
      }

      .cls-3 {
        fill: #191847;
      }

      .cls-4 {
        fill: #784931;
      }

      .cls-5 {
        fill: #e4e4e4;
      }

      .cls-6 {
        fill: #db2721;
      }

      .cls-7 {
        fill: #ff4133;
      }

      .cls-8 {
        fill: #2026a2;
      }

      .cls-9 {
        fill: #1f28cf;
      }
    </style>
  </defs>
  <g id="Agrupar_66" data-name="Agrupar 66" transform="translate(-39.236 -151.996)">
    <path id="Caminho_171" data-name="Caminho 171" class="cls-1" d="M48.922,339.756c1.82,4.932,32.225,83.387,106.274,91.569,53.532,5.915,92.648-29.008,102.422-37.733,58.937-52.619,87.207-161.188,37.77-211.554-41.421-42.2-130.315-36.332-148.778-4.732-10.182,17.427,6.5,33.357-1.144,74.72-5.821,31.482-23.1,63.409-35.176,61.982-16.892-1.995-14.741-68.135-38.869-72.292-8.46-1.458-16.051,5.395-18.626,7.763C25.583,274.5,47.5,335.911,48.922,339.756Z"/>
    <g id="humaaans_standing-10" data-name="humaaans/standing-10">
      <g id="A-Human_Standing" data-name="A-Human/Standing">
        <g id="Head_Front_Chongo" data-name="Head/Front/Chongo">
          <g id="Head">
            <path id="Caminho_172" data-name="Caminho 172" class="cls-2" d="M178.171,211.176a14.948,14.948,0,0,1-3.976-10.742c.828-11.81,17.269-9.212,20.466-3.252s2.818,21.081-1.315,22.147c-1.648.425-5.159-.616-8.733-2.77l2.243,15.869H173.611Z"/>
          </g>
          <path id="hair" class="cls-3" d="M189.43,190.69a17.269,17.269,0,0,0-5.542-.612,9.534,9.534,0,0,0,.674-4.819A14.678,14.678,0,0,0,183,180.9a5.958,5.958,0,0,0-1.156-1.8,3.958,3.958,0,0,0-1.871-1.005,5,5,0,0,0-2.154,0c-.314.066-.595.209-.9.289s-.467-.116-.7-.314a3.934,3.934,0,0,0-2.053-.8,5.284,5.284,0,0,0-2.337.28,4.579,4.579,0,0,0-1.947,1.247,3.29,3.29,0,0,0-.583.894c-.056.136-.066.216-.2.266s-.272.047-.4.091a5.049,5.049,0,0,0-2.9,2.63,8.338,8.338,0,0,0-.456,3.427,14.892,14.892,0,0,0,2.539,6.513,8.1,8.1,0,0,0,4.187,2.365,11.962,11.962,0,0,0-2.188,4.079,19.957,19.957,0,0,0-1,4.955,16.169,16.169,0,0,0,.248,4.885,5.293,5.293,0,0,0,2.368,3.446,11.282,11.282,0,0,0,1.822.856,11.885,11.885,0,0,0,1.877.6,3.768,3.768,0,0,0,3.566-.762,6.708,6.708,0,0,0,.958-1.218c.089-.154.142-.254.034-.4a2.847,2.847,0,0,0-.5-.458,4.754,4.754,0,0,1-1.682-3.149c-.15-1.293.2-2.962,1.454-3.526,1.552-.7,3.26.1,4.639.848a7.584,7.584,0,0,1,3.676-4.879c2.087-1.05,4.482-1.172,6.626-2.073a3.955,3.955,0,0,0,1.54-.979,1.983,1.983,0,0,0,.442-.723,1.166,1.166,0,0,0-.306-.909C194.718,194.142,191.24,191.242,189.43,190.69Z"/>
        </g>
        <g id="Bottom_Standing_Jogging" data-name="Bottom/Standing/Jogging">
          <path id="Leg" class="cls-4" d="M170.3,278.233l41.007,68.557,30.744,57.959h6.622L197.162,278.233Z"/>
          <g id="Accessories_Shoe_Flat-Sneaker" data-name="Accessories/Shoe/Flat-Sneaker">
            <path id="shoe" class="cls-5" d="M238,402.074a11.858,11.858,0,0,0-.926,3.7,27.66,27.66,0,0,0,.5,4.357H268.7q1.213-4.011-1.4-4.331t-4.343-.578l-14.467-6.449a.553.553,0,0,0-.729.279l-.006.015-.93,2.255a9.918,9.918,0,0,1-3.933,1.129,8.921,8.921,0,0,1-3.4-.992h0a1.1,1.1,0,0,0-1.463.543C238.022,402.025,238.012,402.049,238,402.074Z"/>
          </g>
          <path id="Pant" class="cls-6" d="M233.513,395.468l12.77-3.863q-8.393-25.089-20.572-55.219t-26.162-58.153H163.481A567.214,567.214,0,0,0,196.44,342.65,435.956,435.956,0,0,0,233.513,395.468Z"/>
          <path id="Leg-2" data-name="Leg" class="cls-2" d="M167.6,278.233c-3.87,24.092-11.335,54.871-12.039,55.821q-.705.95-50.723,17l1.43,5.839q59.647-8.605,62.858-13.354c3.21-4.748,19.242-42.255,25.451-65.3Z"/>
          <path id="Pant-2" data-name="Pant" class="cls-7" d="M116.564,346l2.52,9.4q44.611,3.912,54.67-5.655t22.925-71.52H162.286q-8.152,50.731-9.116,52.861T116.564,346Z"/>
          <g id="Accessories_Shoe_Flat-Sneaker-2" data-name="Accessories/Shoe/Flat-Sneaker">
            <path id="shoe-2" data-name="shoe" class="cls-5" d="M106.476,348.618a11.848,11.848,0,0,0-3.8-.27,27.724,27.724,0,0,0-4.2,1.247l5.4,30.653q4.161.5,4.022-2.131t-.186-4.378l3.84-15.367a.552.552,0,0,0-.4-.669l-.015,0-2.383-.524a9.915,9.915,0,0,1-1.795-3.677,8.914,8.914,0,0,1,.388-3.516h0a1.1,1.1,0,0,0-.789-1.347C106.527,348.628,106.5,348.623,106.476,348.618Z"/>
          </g>
        </g>
        <g id="Body_Pointing-Forward" data-name="Body/Pointing-Forward">
          <path id="Skin" class="cls-2" d="M198.246,243.852,217.4,233.361a47.39,47.39,0,0,1,9.415-8.814c.945-.394,2.6-.633,1.052,2.109s-3.046,5.7-2.259,6.541,2.749-.335,3.688,1.069q.939,1.4-10.059,4.434l-13.919,12.744Zm30,8.852,8.414-4.623q1.771-6.738,4.234-6.78c1.262-.587-.935,5.089,1.456,4.6s8.227-4.833,9.233-3.951c1.488,1.3.161,5.307-1.4,7.3-2.921,3.722-5.34,5-11.318,6.662a32.861,32.861,0,0,0-10.137,5.241Z"/>
          <path id="Sleeve" class="cls-8" d="M188.917,241.515a47.069,47.069,0,0,0,25.2-7.548l3.749,8.361c-6.585,6.535-15.844,11.9-23.94,11.677A7.314,7.314,0,0,1,188.917,241.515Z"/>
          <path id="Clothes" class="cls-9" d="M197.951,254.923q10.685,2.664,35.834-6.285,6.238,12.906,5.767,18.4c-14.383,7.513-26.71,10.863-36.866,11.084a34.963,34.963,0,0,1-2.875,17c-5.066,10.771-34.729.8-44.7,2.759-6.246-20.284,5.83-28.527,5.84-41.506.011-14.213,11.423-36.09,13.1-36.09h15.313C190.209,231.142,194.461,243.1,197.951,254.923Z"/>
        </g>
      </g>
    </g>
  </g>
</svg>
