<svg xmlns="http://www.w3.org/2000/svg" width="295.609" height="280" viewBox="0 0 295.609 280">
  <defs>
    <style>
      .cls-1 {
        fill: #ffde80;
      }

      .cls-2 {
        fill: #b28b67;
      }

      .cls-3 {
        fill: #191847;
      }

      .cls-4 {
        fill: #997659;
      }

      .cls-5 {
        fill: #e4e4e4;
      }

      .cls-6 {
        fill: #69a1ac;
      }

      .cls-7 {
        fill: #89c5cc;
      }

      .cls-8 {
        fill: #e87613;
      }

      .cls-9 {
        fill: #dde3e9;
      }

      .cls-10 {
        fill: #ff9b21;
      }

      .cls-11 {
        fill: rgba(0,0,0,0.1);
      }
    </style>
  </defs>
  <g id="Agrupar_65" data-name="Agrupar 65" transform="translate(-32.195 -152)">
    <path id="Caminho_169" data-name="Caminho 169" class="cls-1" d="M38.293,350.016c-7.065-18.969-9.708-47.062,1.59-54.3,12.914-8.275,35.61,16.1,50.117,6.849,12.971-8.272,1.361-32.159,14.863-43.246,17.578-14.435,49.992,12.96,65.741-.485,14.945-12.758-5.293-45.07,10.285-58.935,15.661-13.939,47.986,8.159,61.04-6.541,8.3-9.346-1.748-22.54,6.013-32.34,11.036-13.936,50.067-11.219,66,4.707,43.448,43.419-19.1,250.652-133.888,265.413C123.841,438.366,56.623,399.233,38.293,350.016Z"/>
    <g id="humaaans_standing-19" data-name="humaaans/standing-19">
      <g id="humaaan-3">
        <g id="Head_Front_Short-Beard" data-name="Head/Front/Short-Beard">
          <g id="Head">
            <path id="Caminho_170" data-name="Caminho 170" class="cls-2" d="M166.046,198.841c-3.415-2.331-6.171-5.57-6.991-9.808-2.363-12.21,15.173-14.084,20.067-8.913s8.616,20.616,4.675,22.831c-1.572.883-5.449.79-9.693-.415l6.61,15.486-13.558,3.633Z"/>
          </g>
          <path id="Hair" class="cls-3" d="M170.753,187.317q3.658,10.539,7,9.645c3.341-.9,5.611-3.757,7.077-4.149,1.068-.287,1.185,1.1.74,2.275-.367.967-3,2.511-2.666,3.768s2.324-.318,2.524.427c.33,1.233,1.346,3.445-.813,4.024-2.185.585-8.66,1.474-10.6-1.452q-1.874-2.833-4.8-12.535a3.516,3.516,0,0,0-2.9,4.353,3.447,3.447,0,0,0,1.665,2.129c-.49,1.308-1.062,2.69-1.753,4.142-4.386-1.236-8.959-7.07-6.955-14.389a8.637,8.637,0,0,1,4.591-7.151,10.257,10.257,0,0,1,6.328-2.2c3.89-.7,7.595-.457,8.741-.032.957,3.57.543,4.816-5.443,6.32A11.333,11.333,0,0,0,170.753,187.317Z"/>
        </g>
        <g id="Bottom_Standing_Baggy-Pants" data-name="Bottom/Standing/Baggy-Pants">
          <path id="Leg" class="cls-4" d="M173.757,268.867l28.706,72.375,19.253,61.187h7.6L199.885,268.867Z"/>
          <path id="Leg-2" data-name="Leg" class="cls-2" d="M167.977,268.867c-.306,25.433-4.764,59.674-5.476,61.259q-.713,1.586-49.174,40.322l5.236,5.582q57.182-33.211,59.827-37.641c2.646-4.43,11.26-45.191,18.177-69.522Z"/>
          <g id="Accessories_Shoe_Flat-Sneaker" data-name="Accessories/Shoe/Flat-Sneaker">
            <path id="shoe" class="cls-5" d="M112.592,368.573a12.54,12.54,0,0,0-3.634,1.769,29.3,29.3,0,0,0-3.2,3.371l21.2,25.27q4.083-1.748,2.562-4.088t-2.489-3.919l-4.62-16.139a.585.585,0,0,0-.723-.4l-.016.005-2.465.782a10.512,10.512,0,0,1-3.6-2.424,9.422,9.422,0,0,1-1.507-3.433h0a1.17,1.17,0,0,0-1.438-.818Z"/>
          </g>
          <g id="Accessories_Shoe_Flat-Sneaker-2" data-name="Accessories/Shoe/Flat-Sneaker">
            <path id="shoe-2" data-name="shoe" class="cls-5" d="M218.6,399.661a12.567,12.567,0,0,0-.981,3.921,29.286,29.286,0,0,0,.527,4.617h32.987q1.285-4.251-1.484-4.59t-4.6-.612l-15.332-6.835a.585.585,0,0,0-.773.3l-.006.015-.986,2.391a10.524,10.524,0,0,1-4.168,1.2,9.429,9.429,0,0,1-3.6-1.052h0a1.171,1.171,0,0,0-1.551.576C218.624,399.609,218.613,399.635,218.6,399.661Z"/>
          </g>
          <path id="Pant" class="cls-6" d="M193.058,396.126l36.147-3.908L202.415,268.867H170.04Z"/>
          <path id="Pant-2" data-name="Pant" class="cls-7" d="M120.8,361.442l23.71,27.957q37.461-40.755,43.679-53.186t11.181-67.346H162.925q-2.711,48.312-3.654,50.561T120.8,361.442Z"/>
        </g>
        <g id="Body_Hoodie" data-name="Body/Hoodie">
          <path id="Skin" class="cls-2" d="M218.528,255.447l20.74,10.185a50.376,50.376,0,0,1,13.37,2.792c.916.577,2.126,1.859-1.193,2.186s-6.8.819-7.053,2.01,1.961,2.172,1.312,3.833q-.649,1.66-9.958-6l-19.518-4.3Zm-70.46,12.9,12.045-2.076q-4.833,37.776-5.336,40.124c-.753,3.522,2.95,8.03,4.63,10.507-3.619,2.442-4.343-4.11-8.894-.942-4.154,2.892-6.925,7.292-12.717,5.005-.712-.281-1.678-1.642-.181-3.1,3.728-3.638,8.943-9.776,9.474-11.587Q148.176,302.572,148.068,268.349Z"/>
          <path id="Coat-Back" class="cls-8" d="M173.412,212.06l4.831-1.728c21.28,12.626,34.251,41.8,59.752,53.976l-4.266,7.686C193.58,274.082,177.277,238.576,173.412,212.06Z"/>
          <path id="Shirt" class="cls-9" d="M162.683,278.17l44.068-7.77c2.014-.355,1.124-3.182.576-4.591-6.331-16.258-22.648-32.109-26.878-56.1l-13.061.258C159.841,228.652,159.858,250.01,162.683,278.17Z"/>
          <path id="Coat-Front" class="cls-10" d="M154.432,229.31a7.375,7.375,0,0,1-5.037-2.922c-6.117-7.523-5.249-12.412-.55-14.8s9.675-.056,17.586-1.451a8.181,8.181,0,0,1,1.2-.128l4.02-.476q27.309,54.736,23.035,75.4L160,291.054a119.443,119.443,0,0,1-3.778,13.076l-9.451,1.667Q137.864,263.1,154.432,229.31Z"/>
          <path id="Shade" class="cls-11" d="M164.063,269.948q4.038,13.334,8.806,18.836L160,291.054Q162.121,282.077,164.063,269.948Z"/>
        </g>
      </g>
    </g>
  </g>
</svg>
