<?xml version="1.0" standalone="no"?>
<!DOCTYPE svg PUBLIC "-//W3C//DTD SVG 20010904//EN"
 "http://www.w3.org/TR/2001/REC-SVG-20010904/DTD/svg10.dtd">
<svg version="1.0" xmlns="http://www.w3.org/2000/svg"
 width="1000.000000pt" height="170.000000pt" viewBox="0 0 1000.000000 170.000000"
 preserveAspectRatio="xMidYMid meet">
<metadata>
Created by potrace 1.15, written by Peter Selinger 2001-2017
</metadata>
<g transform="translate(0.000000,170.000000) scale(0.100000,-0.100000)"
fill="#000000" stroke="none">
<path d="M1005 1630 c-3 -5 -3 -15 1 -21 3 -6 1 -22 -6 -35 -10 -18 -10 -26
-1 -38 10 -12 5 -18 -33 -34 -68 -31 -85 -84 -46 -147 l20 -33 -66 -16 c-229
-58 -401 -229 -465 -462 -27 -99 -23 -255 9 -354 63 -191 225 -352 417 -413
100 -31 280 -31 380 0 192 61 354 222 417 413 29 90 36 254 14 341 -36 142
-120 274 -227 356 -64 49 -156 96 -219 112 -74 19 -72 17 -50 53 25 42 25 84
-1 127 -19 31 -21 32 -39 16 -14 -13 -18 -29 -16 -76 2 -69 -5 -85 -30 -75
-15 6 -16 9 -4 16 16 10 24 55 14 79 -12 28 -11 52 1 47 13 -5 35 12 35 26 0
4 -13 8 -30 8 -28 0 -29 2 -23 31 5 25 2 31 -16 36 -20 5 -21 7 -6 23 14 16
14 18 0 24 -22 8 -23 8 -30 -4z m67 -352 c2 -15 9 -22 20 -20 10 1 27 -15 46
-47 23 -36 39 -51 62 -56 22 -5 28 -10 22 -18 -6 -7 -9 -23 -7 -37 1 -14 3
-34 4 -45 l2 -20 8 20 c5 11 6 22 2 25 -14 12 -10 50 5 50 10 0 14 6 11 14 -7
18 19 11 44 -11 9 -7 23 -11 31 -8 20 8 42 -20 35 -44 -2 -11 4 -32 14 -48 10
-15 19 -22 19 -15 0 20 21 14 27 -9 3 -12 11 -18 19 -15 8 3 14 -1 14 -8 0 -8
5 -16 11 -18 9 -3 9 -10 0 -26 -12 -23 -3 -30 16 -11 14 14 55 -62 43 -82 -5
-8 -4 -19 2 -27 9 -10 8 -19 -2 -35 -13 -22 -13 -22 9 -3 24 21 25 21 36 -13
6 -18 4 -22 -6 -16 -8 5 -7 0 3 -11 9 -10 22 -41 30 -69 l13 -50 6 50 6 50 1
-55 c2 -54 -19 -164 -33 -178 -3 -4 -4 5 0 21 10 37 2 34 -30 -14 -25 -38 -28
-40 -43 -25 -16 15 -15 18 13 40 25 20 28 27 17 38 -11 11 -12 10 -7 -2 3 -10
-6 -24 -25 -39 -29 -21 -30 -24 -14 -35 10 -8 15 -20 11 -29 -3 -9 0 -18 9
-21 8 -3 14 -14 14 -25 0 -20 -18 -31 -51 -31 -11 0 -17 -4 -14 -10 3 -6 -1
-7 -9 -4 -9 3 -16 10 -16 15 0 15 -22 10 -36 -8 -21 -29 -16 -38 7 -12 19 23
20 23 14 3 -5 -18 -2 -21 20 -16 27 5 28 3 19 -22 -4 -12 -16 -15 -43 -12 -20
2 -28 1 -18 -1 9 -2 17 -8 17 -13 0 -16 -19 -21 -38 -11 -13 7 -22 7 -30 -1
-8 -8 -15 -9 -22 -2 -14 14 -15 127 -1 153 10 18 5 29 -43 85 -30 35 -57 73
-61 85 -3 12 -10 19 -14 16 -10 -5 -90 45 -110 69 -12 15 -12 19 7 32 12 8 22
20 22 26 0 7 -4 7 -14 -1 -11 -9 -12 -3 -9 36 6 60 -8 115 -29 119 -18 2 -30
-20 -47 -84 -7 -24 -19 -46 -26 -49 -13 -4 -13 -8 0 -26 8 -12 15 -26 15 -32
0 -12 -137 -85 -157 -85 -7 0 -13 7 -13 15 0 8 -4 15 -10 15 -10 0 -13 -17
-11 -60 4 -72 1 -86 -18 -102 -31 -24 -26 -39 7 -23 29 16 29 16 31 88 0 26 4
46 9 45 8 -1 80 28 102 42 8 6 25 14 37 19 11 6 30 19 41 31 l19 21 24 -27
c62 -69 96 -97 112 -91 11 3 29 -17 82 -95 14 -21 30 -38 35 -38 22 0 -3 -82
-34 -114 -22 -21 -23 -23 -4 -7 15 14 29 23 32 20 2 -2 6 -43 10 -92 6 -71 4
-87 -7 -87 -20 0 -45 30 -61 76 -8 21 -15 32 -15 23 -2 -32 22 -84 47 -106
l26 -22 -25 -9 c-13 -6 -48 -20 -76 -31 -62 -25 -203 -36 -266 -21 -23 6 -54
12 -68 15 -37 5 -99 32 -99 42 0 5 5 14 12 21 6 6 8 15 3 19 -4 5 -9 4 -12 -2
-9 -26 -21 -35 -36 -29 -14 5 -17 20 -17 74 0 62 -2 68 -19 65 -10 -2 -30 3
-45 10 -19 10 -26 11 -26 2 -1 -7 -12 2 -25 18 -14 17 -25 26 -25 21 0 -6 -6
-1 -14 9 -10 14 -11 25 -4 38 5 10 7 21 4 25 -3 3 -6 0 -6 -6 0 -7 -4 -12 -10
-12 -17 0 -11 42 9 64 10 12 26 33 35 47 15 25 16 28 1 43 -9 9 -28 16 -43 16
-20 0 -23 -3 -13 -9 8 -5 20 -7 28 -4 23 9 25 -26 3 -62 -12 -19 -25 -35 -28
-35 -16 1 -44 29 -38 39 4 5 1 13 -5 16 -5 4 -8 13 -5 21 3 8 0 11 -8 8 -26
-10 -30 19 -5 39 13 10 24 24 25 31 0 6 2 19 2 29 2 21 22 23 22 2 0 -8 8 -15
18 -14 10 0 12 3 5 6 -19 7 -16 26 6 40 30 19 32 61 5 101 -15 22 -24 29 -24
18 0 -9 9 -27 20 -39 12 -12 17 -23 11 -25 -5 -2 -7 -12 -4 -22 8 -29 -43 -47
-68 -24 -24 22 -24 36 1 59 26 23 25 31 -1 38 -15 4 -19 3 -11 -5 7 -7 5 -19
-6 -38 -16 -27 -16 -30 5 -52 19 -20 20 -27 9 -52 -11 -28 -12 -27 -31 45
l-20 74 -6 -50 c-5 -37 -6 -30 -3 25 1 41 10 95 18 120 13 39 15 40 9 10 l-5
-35 22 28 c21 26 23 27 36 10 11 -16 10 -20 -9 -35 l-22 -17 22 5 c25 7 38 33
23 48 -5 5 -10 18 -10 28 0 10 -5 18 -11 18 -5 0 -7 -5 -3 -12 4 -6 3 -8 -4
-5 -25 16 15 81 43 71 7 -3 16 0 20 6 5 8 10 8 20 0 9 -8 14 -6 18 9 3 14 0
17 -13 14 -23 -6 -35 14 -20 32 9 11 17 11 36 3 20 -10 28 -8 42 6 16 18 16
18 -8 7 -23 -11 -23 -11 -7 3 24 19 50 10 42 -14 -3 -10 0 -22 6 -26 9 -5 10
-2 5 11 -5 15 -4 16 9 5 12 -10 24 -11 55 -1 48 14 56 26 40 57 -11 19 -11 26
0 39 11 13 10 14 -4 9 -19 -7 -21 -35 -4 -52 15 -15 -5 -37 -42 -45 -20 -5
-32 0 -53 22 -26 28 -26 30 -11 61 16 30 19 32 57 26 23 -4 38 -4 34 0 -13 14
14 34 33 24 20 -11 31 -4 23 16 -11 30 29 12 42 -18 11 -26 14 -29 15 -12 0
23 17 34 51 34 10 0 19 6 19 14 0 17 49 76 50 60 0 -6 -9 -19 -19 -28 -11 -10
-17 -24 -14 -32 3 -8 0 -14 -5 -14 -11 0 -20 -22 -28 -67 -3 -16 -7 -35 -9
-43 -3 -8 -1 -21 4 -29 7 -10 12 -8 24 10 22 31 28 21 32 -53 3 -47 8 -64 19
-66 19 -4 21 9 4 26 -17 17 3 14 26 -3 26 -20 29 -19 65 11 27 22 31 32 31 76
l0 51 20 -26 c11 -14 20 -30 20 -37 0 -12 56 -128 70 -145 9 -11 67 -166 76
-205 4 -14 9 -63 11 -110 3 -47 8 -88 11 -92 4 -4 4 41 1 100 -8 117 -38 212
-115 362 -22 41 -40 84 -41 95 -2 11 -5 37 -7 57 -6 51 -86 190 -86 149 0 -6
-11 -1 -24 10 -14 12 -22 28 -19 35 8 21 21 17 25 -8z"/>
<path d="M1800 1095 l0 -165 3910 0 3910 0 0 165 0 165 -3910 0 -3910 0 0
-165z m3284 64 c48 -38 20 -109 -44 -109 -28 0 -30 -3 -30 -35 0 -33 -2 -35
-35 -35 l-35 0 0 100 0 100 59 0 c44 0 65 -5 85 -21z m197 -74 c16 -49 29 -93
29 -97 0 -15 -61 -8 -66 7 -4 9 -19 15 -35 15 -19 0 -29 -5 -29 -15 0 -10 -10
-15 -29 -15 l-28 0 31 100 31 101 33 -3 c33 -3 34 -5 63 -93z m224 70 c29 -28
30 -38 9 -74 -14 -24 -15 -30 0 -64 l15 -37 -39 0 c-35 0 -39 3 -45 30 -10 43
-25 47 -25 6 0 -34 -2 -36 -35 -36 l-35 0 0 100 0 100 65 0 c57 0 69 -3 90
-25z m207 14 c50 -27 58 -127 14 -168 -71 -67 -178 2 -159 103 11 57 92 93
145 65z m239 -18 c33 -34 39 -83 14 -131 -14 -27 -14 -30 0 -30 9 0 15 -9 15
-25 0 -20 -5 -25 -24 -25 -13 0 -29 6 -35 14 -7 8 -27 17 -46 20 -20 4 -44 19
-60 38 -23 27 -26 39 -22 77 10 88 98 122 158 62z m139 -46 c0 -68 2 -75 20
-75 17 0 19 8 22 73 3 70 4 72 31 75 l27 3 0 -79 c0 -103 -15 -125 -85 -125
-70 0 -85 22 -85 124 l0 79 35 0 35 0 0 -75z m411 -20 c16 -49 29 -93 29 -97
0 -15 -61 -8 -66 7 -4 9 -19 15 -35 15 -19 0 -29 -5 -29 -15 0 -10 -10 -15
-29 -15 l-28 0 31 100 31 101 33 -3 c33 -3 34 -5 63 -93z"/>
<path d="M2270 790 c-48 -12 -97 -70 -106 -127 -13 -85 8 -141 70 -187 39 -29
133 -29 173 0 38 27 73 99 73 149 0 53 -37 125 -75 147 -39 22 -91 29 -135 18z"/>
<path d="M2635 791 c-71 -17 -95 -45 -95 -108 1 -54 20 -73 97 -98 76 -25 94
-45 39 -45 -22 0 -38 6 -44 17 -8 13 -19 15 -57 9 -27 -3 -50 -8 -52 -10 -9
-8 28 -66 51 -81 66 -43 201 -22 231 35 40 77 5 140 -89 161 -59 13 -77 26
-56 39 16 10 41 2 56 -16 9 -11 18 -12 45 -3 46 16 53 23 40 48 -22 40 -106
66 -166 52z"/>
<path d="M2965 791 c-71 -17 -95 -45 -95 -108 1 -54 20 -73 97 -98 76 -25 94
-45 39 -45 -22 0 -38 6 -44 17 -8 13 -19 15 -57 9 -27 -3 -50 -8 -52 -10 -9
-8 28 -66 51 -81 66 -43 201 -22 231 35 40 77 5 140 -89 161 -59 13 -77 26
-56 39 16 10 41 2 56 -16 9 -11 18 -12 45 -3 46 16 53 23 40 48 -22 40 -106
66 -166 52z"/>
<path d="M3815 791 c-71 -17 -95 -45 -95 -108 1 -54 20 -73 97 -98 76 -25 94
-45 39 -45 -22 0 -38 6 -44 17 -8 13 -19 15 -57 9 -27 -3 -50 -8 -52 -10 -9
-8 28 -66 51 -81 66 -43 201 -22 231 35 40 77 5 140 -89 161 -59 13 -77 26
-56 39 16 10 41 2 56 -16 9 -11 18 -12 45 -3 46 16 53 23 40 48 -22 40 -106
66 -166 52z"/>
<path d="M5240 790 c-48 -12 -97 -70 -106 -127 -13 -85 8 -141 70 -187 39 -29
133 -29 173 0 38 27 73 99 73 149 0 53 -37 125 -75 147 -39 22 -91 29 -135 18z"/>
<path d="M7660 790 c-48 -12 -97 -70 -106 -127 -13 -85 8 -141 70 -187 39 -29
133 -29 173 0 38 27 73 99 73 149 0 53 -37 125 -75 147 -39 22 -91 29 -135 18z"/>
<path d="M9445 791 c-71 -17 -95 -45 -95 -108 1 -54 20 -73 97 -98 76 -25 94
-45 39 -45 -22 0 -38 6 -44 17 -8 13 -19 15 -57 9 -27 -3 -50 -8 -52 -10 -9
-8 28 -66 51 -81 66 -43 201 -22 231 35 40 77 5 140 -89 161 -59 13 -77 26
-56 39 16 10 41 2 56 -16 9 -11 18 -12 45 -3 46 16 53 23 40 48 -22 40 -106
66 -166 52z"/>
<path d="M1800 625 l0 -165 45 0 44 0 3 85 3 84 51 -82 50 -82 47 -3 47 -3 0
165 0 166 -45 0 -45 0 0 -72 -1 -73 -45 73 -46 72 -54 0 -54 0 0 -165z"/>
<path d="M3295 778 c-11 -30 -95 -307 -95 -312 0 -3 20 -6 45 -6 43 0 46 2 52
30 5 28 9 30 48 30 40 0 44 -2 50 -30 6 -29 9 -30 62 -30 65 0 65 -16 0 190
l-43 135 -57 3 c-40 2 -59 -1 -62 -10z"/>
<path d="M4060 625 l0 -165 130 0 130 0 0 40 0 40 -75 0 c-73 0 -75 1 -75 25
0 24 3 25 60 25 l60 0 0 40 0 40 -60 0 c-53 0 -60 2 -60 20 0 18 7 20 75 20
l75 0 0 40 0 40 -130 0 -130 0 0 -165z"/>
<path d="M4390 625 l0 -165 45 0 44 0 3 85 3 84 51 -82 50 -82 47 -3 47 -3 0
165 0 166 -45 0 -45 0 0 -72 -1 -73 -45 73 -46 72 -54 0 -54 0 0 -165z"/>
<path d="M4760 625 l0 -165 55 0 55 0 0 60 0 60 35 0 35 0 0 -60 0 -60 55 0
55 0 0 165 0 165 -55 0 -55 0 0 -60 0 -60 -35 0 -35 0 0 60 0 60 -55 0 -55 0
0 -165z"/>
<path d="M5510 625 l0 -165 55 0 55 0 0 60 c0 44 4 60 14 60 7 0 23 -27 36
-60 l22 -60 59 0 c33 0 59 2 59 5 0 3 -11 33 -25 66 l-25 62 25 29 c16 19 25
42 25 64 0 83 -39 104 -190 104 l-110 0 0 -165z"/>
<path d="M5965 778 c-11 -30 -95 -307 -95 -312 0 -3 20 -6 45 -6 43 0 46 2 52
30 5 28 9 30 48 30 40 0 44 -2 50 -30 6 -29 9 -30 62 -30 65 0 65 -16 0 190
l-43 135 -57 3 c-40 2 -59 -1 -62 -10z"/>
<path d="M6400 625 l0 -165 98 0 c110 0 146 15 183 72 29 47 23 150 -10 197
-34 47 -75 61 -181 61 l-90 0 0 -165z"/>
<path d="M6770 625 l0 -165 130 0 130 0 0 40 0 40 -75 0 c-73 0 -75 1 -75 25
0 24 3 25 60 25 l60 0 0 40 0 40 -60 0 c-53 0 -60 2 -60 20 0 18 7 20 75 20
l75 0 0 40 0 40 -130 0 -130 0 0 -165z"/>
<path d="M7260 625 l0 -165 120 0 120 0 0 40 0 40 -65 0 -65 0 0 125 0 125
-55 0 -55 0 0 -165z"/>
<path d="M7930 663 c0 -82 5 -137 13 -153 26 -53 129 -76 203 -45 52 21 64 60
64 205 l0 120 -45 0 -44 0 -3 -122 -3 -123 -29 -3 c-16 -2 -32 2 -37 10 -5 7
-9 64 -9 126 l0 112 -55 0 -55 0 0 -127z"/>
<path d="M8290 625 l0 -165 55 0 55 0 0 60 c0 44 4 60 14 60 7 0 23 -27 36
-60 l22 -60 59 0 c33 0 59 2 59 5 0 3 -11 33 -25 66 l-25 62 25 29 c16 19 25
42 25 64 0 83 -39 104 -190 104 l-110 0 0 -165z"/>
<path d="M8670 625 l0 -165 98 0 c110 0 146 15 183 72 29 47 23 150 -10 197
-34 47 -75 61 -181 61 l-90 0 0 -165z"/>
<path d="M9040 625 l0 -165 130 0 130 0 0 40 0 40 -75 0 c-73 0 -75 1 -75 25
0 24 3 25 60 25 l60 0 0 40 0 40 -60 0 c-53 0 -60 2 -60 20 0 18 7 20 75 20
l75 0 0 40 0 40 -130 0 -130 0 0 -165z"/>
<path d="M6423 250 c-28 -11 -43 -40 -43 -83 0 -44 26 -75 67 -83 27 -5 37 -1
63 24 45 45 36 117 -17 141 -28 13 -40 13 -70 1z"/>
<path d="M6603 250 c-67 -27 -54 -149 17 -165 32 -7 71 13 81 43 7 20 5 22
-21 22 -17 0 -30 -4 -30 -10 0 -5 -7 -10 -15 -10 -11 0 -15 11 -15 40 0 29 4
40 15 40 8 0 15 -7 15 -15 0 -10 10 -15 31 -15 27 0 30 3 24 23 -14 44 -59 65
-102 47z"/>
<path d="M6900 247 c-32 -16 -40 -65 -14 -84 18 -13 18 -14 -4 -19 -26 -7 -28
-17 -6 -38 23 -24 61 -30 94 -16 49 20 54 82 8 99 -21 8 -21 8 8 15 l29 8 -28
24 c-32 27 -51 29 -87 11z"/>
<path d="M7683 250 c-28 -11 -43 -40 -43 -83 0 -44 26 -75 67 -83 27 -5 37 -1
63 24 45 45 36 117 -17 141 -28 13 -40 13 -70 1z"/>
<path d="M7850 253 c-39 -14 -51 -60 -24 -87 14 -15 14 -17 -6 -24 -21 -8 -21
-8 -2 -32 15 -19 30 -25 60 -25 48 0 72 18 72 55 0 31 -11 42 -55 58 -30 11
-30 11 6 6 41 -6 60 10 38 32 -16 16 -67 26 -89 17z"/>
<path d="M8170 253 c-39 -14 -51 -60 -24 -87 14 -15 14 -17 -6 -24 -21 -8 -21
-8 -2 -32 15 -19 30 -25 60 -25 48 0 72 18 72 55 0 31 -11 42 -55 58 -30 11
-30 11 6 6 41 -6 60 10 38 32 -16 16 -67 26 -89 17z"/>
<path d="M8333 250 c-67 -27 -54 -149 17 -165 32 -7 71 13 81 43 7 20 5 22
-21 22 -17 0 -30 -4 -30 -10 0 -5 -7 -10 -15 -10 -11 0 -15 11 -15 40 0 29 4
40 15 40 8 0 15 -7 15 -15 0 -10 10 -15 31 -15 27 0 30 3 24 23 -14 44 -59 65
-102 47z"/>
<path d="M8493 250 c-28 -11 -43 -40 -43 -83 0 -44 26 -75 67 -83 27 -5 37 -1
63 24 45 45 36 117 -17 141 -28 13 -40 13 -70 1z"/>
<path d="M2815 188 c-9 -35 -20 -71 -22 -80 -4 -14 1 -18 21 -18 16 0 26 5 26
15 0 20 36 20 44 0 3 -9 18 -15 35 -15 l29 0 -26 80 c-25 77 -27 80 -57 80
-30 0 -33 -3 -50 -62z"/>
<path d="M3100 170 l0 -80 30 0 c25 0 30 4 30 25 0 17 5 25 18 25 31 0 62 29
62 59 0 40 -17 51 -82 51 l-58 0 0 -80z"/>
<path d="M3270 170 c0 -79 0 -80 25 -80 21 0 25 5 25 30 0 20 5 30 15 30 10 0
15 -10 15 -30 0 -27 3 -30 30 -30 l30 0 0 80 0 80 -30 0 c-27 0 -30 -3 -30
-30 0 -20 -5 -30 -15 -30 -10 0 -15 10 -15 30 0 25 -4 30 -25 30 -25 0 -25 -1
-25 -80z"/>
<path d="M3455 188 c-9 -35 -20 -71 -22 -80 -4 -14 1 -18 21 -18 16 0 26 5 26
15 0 20 36 20 44 0 3 -9 18 -15 35 -15 l29 0 -26 80 c-25 77 -27 80 -57 80
-30 0 -33 -3 -50 -62z"/>
<path d="M3583 243 c3 -4 15 -41 27 -81 21 -72 22 -73 52 -70 28 3 33 9 48 53
33 98 33 105 6 105 -21 0 -27 -7 -37 -42 l-12 -43 -11 40 c-10 35 -16 40 -45
43 -18 2 -31 0 -28 -5z"/>
<path d="M4130 170 l0 -80 60 0 c53 0 60 2 60 20 0 16 -7 20 -35 20 -19 0 -35
5 -35 10 0 6 14 10 30 10 23 0 30 4 30 20 0 16 -7 20 -30 20 -16 0 -30 5 -30
10 0 6 16 10 35 10 28 0 35 4 35 20 0 18 -7 20 -60 20 l-60 0 0 -80z"/>
<path d="M4490 170 l0 -80 58 0 c32 0 63 5 70 12 14 14 16 54 2 63 -6 4 -5 13
3 25 22 36 -2 55 -72 58 l-61 3 0 -81z"/>
<path d="M4666 173 l-24 -78 21 -3 c11 -2 26 3 33 12 14 20 44 21 44 1 0 -10
10 -15 31 -15 24 0 29 3 25 18 -3 9 -14 44 -24 77 -16 55 -20 60 -49 63 -31 3
-32 2 -57 -75z"/>
<path d="M4820 170 l0 -80 30 0 c27 0 30 3 31 33 l1 32 10 -32 c9 -29 15 -33
44 -33 38 0 39 4 20 39 -12 21 -12 27 0 39 17 17 18 54 2 70 -7 7 -39 12 -75
12 l-63 0 0 -80z"/>
<path d="M4990 187 c0 -80 14 -102 68 -102 60 0 72 16 72 96 0 62 -2 69 -20
69 -16 0 -19 -8 -22 -57 -2 -44 -7 -58 -18 -58 -11 0 -16 14 -18 58 -3 56 -4
57 -32 57 l-30 0 0 -63z"/>
<path d="M5160 170 l0 -80 65 0 c58 0 65 2 65 20 0 16 -7 20 -35 20 -19 0 -35
5 -35 10 0 6 11 10 25 10 18 0 25 5 25 20 0 15 -7 20 -25 20 -14 0 -25 5 -25
10 0 6 16 10 35 10 28 0 35 4 35 20 0 18 -7 20 -65 20 l-65 0 0 -80z"/>
<path d="M5310 170 l0 -80 30 0 c27 0 30 3 31 33 l1 32 10 -32 c9 -29 15 -33
44 -33 38 0 39 4 20 39 -12 21 -12 27 0 39 17 17 18 54 2 70 -7 7 -39 12 -75
12 l-63 0 0 -80z"/>
<path d="M6130 170 l0 -80 53 0 c68 0 87 18 87 82 0 60 -20 78 -88 78 l-52 0
0 -80z"/>
<path d="M6730 170 l0 -80 60 0 c53 0 60 2 60 20 0 16 -7 20 -35 20 -19 0 -35
5 -35 10 0 6 14 10 30 10 23 0 30 4 30 20 0 16 -7 20 -30 20 -16 0 -30 5 -30
10 0 6 16 10 35 10 28 0 35 4 35 20 0 18 -7 20 -60 20 l-60 0 0 -80z"/>
<path d="M7030 170 l0 -80 65 0 c58 0 65 2 65 20 0 16 -7 20 -35 20 -19 0 -35
5 -35 10 0 6 11 10 25 10 18 0 25 5 25 20 0 15 -7 20 -25 20 -14 0 -25 5 -25
10 0 6 16 10 35 10 28 0 35 4 35 20 0 18 -7 20 -65 20 l-65 0 0 -80z"/>
<path d="M7250 170 l0 -80 54 0 c47 0 57 4 75 26 23 30 27 64 10 97 -17 32
-28 37 -86 37 l-53 0 0 -80z"/>
<path d="M7430 170 l0 -80 60 0 c53 0 60 2 60 20 0 16 -7 20 -35 20 -19 0 -35
5 -35 10 0 6 14 10 30 10 23 0 30 4 30 20 0 16 -7 20 -30 20 -16 0 -30 5 -30
10 0 6 16 10 35 10 28 0 35 4 35 20 0 18 -7 20 -60 20 l-60 0 0 -80z"/>
<path d="M7986 173 l-24 -78 21 -3 c11 -2 26 3 33 12 14 20 44 21 44 1 0 -10
10 -15 31 -15 24 0 29 3 25 18 -3 9 -14 44 -24 77 -16 55 -20 60 -49 63 -31 3
-32 2 -57 -75z"/>
</g>
</svg>
